<?xml version="1.0" encoding="UTF-8"?>
<svg id="Layer_2" xmlns="http://www.w3.org/2000/svg" viewBox="0 0 100.02 17.18">
  <defs>
    <style>
      .cls-1 {
        fill: #000000;
      }
    </style>
  </defs>
  <g id="Layer_1-2" data-name="Layer_1">
    <g>
      <path class="cls-1" d="M.01,5.76c-.03.43-.01,1.41.06,1.21l.05-1.65-.11.44Z"/>
      <path class="cls-1" d="M.51,8.83c.09-.8.19-2.21.13-3.73-.09,1.59-.11.93-.2,2.82-.07.19-.13-.53-.12-1.14-.03.42-.11-.36-.15.67.1,1.28.22,1.33.34.27.03.37,0,.8,0,1.1Z"/>
      <path class="cls-1" d="M7.67,11.41l-.05-.2c.01.11.03.17.05.2Z"/>
      <path class="cls-1" d="M12.1,12.32s-.05.2-.05.35c.03-.11.06-.21.05-.35Z"/>
      <path class="cls-1" d="M12.86,14.14l-.04-.11c.02.15.03.24.04.11Z"/>
      <path class="cls-1" d="M7.67,11.41l.12.52c0-.54-.06-.4-.12-.52Z"/>
      <path class="cls-1" d="M1.49,4.83c-.02.08-.05.23-.06.44l.06-.18c0-.09,0-.17,0-.26Z"/>
      <path class="cls-1" d="M5.71,12.75h-.04c-.01.19-.02.42-.03.68l.07-.68Z"/>
      <path class="cls-1" d="M4.21,13c.03.06.05-1.34.06-1.96-.02.58-.04.85-.07.96,0,.27,0,.59.02,1Z"/>
      <path class="cls-1" d="M1.83,10.53l-.04.19.04-.19Z"/>
      <path class="cls-1" d="M6.79,13.05c0,.21,0,.39.01.5,0-.18,0-.34-.01-.5Z"/>
      <path class="cls-1" d="M48.77,2.49c0,.1,0,.16,0,.25,0-.14.01-.24,0-.25Z"/>
      <path class="cls-1" d="M50.51,9.45l-.02.08c0,.27,0,.53,0,.79l.03-.86Z"/>
      <path class="cls-1" d="M14.25,15.94v-.03c-.04.16-.02.13,0,.03Z"/>
      <path class="cls-1" d="M26.98,14.9c-.14-1.26.23-1.61.02-3.01.02.55-.2,2.19-.02,3.01Z"/>
      <path class="cls-1" d="M1.53,5.02h.06s-.06,0-.06,0Z"/>
      <polygon class="cls-1" points="26.99 11.89 26.99 11.88 26.97 11.75 26.99 11.89"/>
      <path class="cls-1" d="M17.44,15.1c0-.25-.02-.44-.03-.62,0,.14,0,.32.03.62Z"/>
      <path class="cls-1" d="M15.06,13.1l.06.19c-.02-.13-.04-.17-.06-.19Z"/>
      <path class="cls-1" d="M18.68,13.11c.03.11.04.3.09.11v-.17c-.03.19-.05.28-.09.06Z"/>
      <path class="cls-1" d="M19.96,13.1c0-.11-.02-.19-.02-.28l-.04.08.06.21Z"/>
      <path class="cls-1" d="M44.86,3.17c.03.4.05.83.06,1.26-.02-1,.17-1.35-.06-1.26Z"/>
      <path class="cls-1" d="M1.49,5.62c0-.35.02-.53.04-.61l-.04.08c0,.21,0,.41,0,.53Z"/>
      <path class="cls-1" d="M18.73,2.02l.2.21c-.06-.14-.13-.21-.2-.21Z"/>
      <path class="cls-1" d="M35.64,3.37l.05-.17s-.03,0-.05.17Z"/>
      <path class="cls-1" d="M19.54,2.02c.04.5.08.78.12.97,0-.11.02-.2.02-.36l-.14-.61Z"/>
      <path class="cls-1" d="M44.92,4.44h0s0,0,0,0Z"/>
      <path class="cls-1" d="M46.27,1.11c-.19-.04-.09,1.81-.13,2.87-.23.52-.11-1.36-.19-2.3-.15.49-.26,2.19-.36,2.11,0-.3-.03-.41,0-.8-.15,1.47-.46.07-.63,1.92-.01-.16-.02-.32-.02-.46.03.93.03,1.87.03,2.54-.09.03-.16,1.17-.19-.04.05.04.06-.45.08-.83l-.09.52c-.08-1.73.12-.6.12-1.88-.18.56-.39,2-.52,1.51-.03-1.7.32-.57.14-2.08l.21.65c-.16-2.68.13.19-.02-2.68-.28-.49-.31.87-.59.37-.06.94.02,1.4-.04,2.34-.39,1.7-.31-4.27-.6-2.01-.08,1.13-.1,3.28-.31,2.14l.07-1.92c-.27-.19-.15,2.76-.44,1.47.05-.75.21-.64.17-.86-.18-1.52-.13,1.09-.27,1.09l-.03-1.7c-.29.27-.6,1.5-.92,1.81.02-.51.07-1.04,0-1.56-.4.85-.86-.21-1.24-1.22l-.15,1.47s-.06-.66-.03-.95c-.15-.56,0,.93-.08,1.51-.09.1-.11-.84-.06-1.28-.27,1.24-.76,2.68-1.04,1.11l.05-.44c-.22-.6-.25,3.01-.45,1.64l.04-.26c-.47-.64-1,.71-1.36-1.51-.07,2.11-.47-.94-.5,2.01-.27-1.46-.19-1.99-.57-2.97-.1-.14-.15,1.84-.28,2.15v-1.54s-.17,1.62-.17,1.62l-.09-1.84-.12.4c.05.09.1.69.09,1.13-.18.7-.45-1.07-.45-1.86l-.44,1.3c0-.62.08-.83.14-1.23-.23,1.57-.04-1.62-.26-.18.03.35-.02.92-.02,1.23-.11-.93-.35-.94-.53-.55l.03-1.06c-.32-.27-.68.51-1.04.49.13.49.1,2.34,0,2.51l-.04-1.63c-.07,1.01.11.62-.03,1.85-.14-.19-.09-1.85-.01-2.38l-.16.57c0-.49.03-.74.04-1.36-.07,1.01-.28-1.63-.38.12v-.48c-.37-.01-.54.55-.83.63,0,1.41-.12,1.09-.21,2.23-.22-.45-.46-1.55-.72-1.43-.18.7-.05,1.19-.14,2.03-.01-1.28-.27-1.16-.14-2.08-.31.21-.4.26-.8,1.3.04.52.09.75.07,1.19-.07.21-.16-.54-.15-1.15l.02-.13c-.45,1.92-1.03-3.73-1.38-1.06l.02-.13-.37,1.39c-.17-.22.1-.96-.02-1.76-.4,2.14-.63-.31-.95,1.11-.25-3.78-.9.27-1.24-2.15l.02.89c-.09.87-.11-.51-.17-.71,0,.69.1.8.04,1.28-.75,1.07-1.54-1.3-2.31-2.1-.28-.24-.16,4.6-.51,2.48l.1-1.65c-.57,1.98-1.16-.07-1.71,1.61.03-.38.03-.88.09-.87-.12-1.2-.43-.06-.43.92-.09-.11-.02-.89-.07-1.38-.12-.71-.29,1.53-.36.34-.01-.19.03-.39.05-.48-.08.58-.36-.15-.28,1.24-.21-.66-.4.61-.56-.2-.11,1.55-.36-.74-.39,1.44.01-2.26-.36-1.82-.5-.76.04-.68-.11-.71-.06-1.66-.15.03-.29.45-.26,1.61-.28-2.71-.56,2.18-.71-1.29-.45,1.22-.86,2.04-1.26,2.57.01-2.25.44-.22.43-2.59-.38.93-.6,2.87-.98,2.32-.1-.31.06-.98.09-1.36-.38.93-.73-.21-1.07,1.02,0-.21.04-.44.07-.61-.07.07-.15-.33-.15.69l.06-.28c.11,1.49-.26,3.11-.28,3.89.11-2.94-.33-.74-.15-4.45-.04.19-.1.68-.09,1.36-.07-.2-.09-.6-.02-1.38-.24.56-.15,1.65-.37,1.62,0-.5.04-.69.07-1.27-.11.97-.22,1.94-.4,1.52.01-.3-.01-.69.04-.68-.31.15-.53,2.58-.88,1.64.1-2.16-.12-.71-.14-2.58l-.19.56.07.91c-.16-.03-.31,1.33-.44.72l.12-.77-.3.35.17.71c-.16.96.02,2.36-.2,1.84.04-.19-.16-.02-.25-1.12h0c-.08.59-.16,1.21-.28.75-.03-.6.03-2.06,0-2.46-.08,1.56-.38.43-.48,2.09.03-.39.04-1.37.02-1.57l-.07,1.27c-.08-.41-.09-.6-.07-1.38-.23-.23.07,2.37-.2,1.35.02-.1.01-.29.05-.48-.27-.53-.52.8-.77.18-.07-1.88.22-.46.13-2.04-.36.34-.74,2.25-1.08,1.81l.06.21c-.05,2.65-.26-1.31-.43-.06.04-.2.06-1.47.04-1.18-.24-.43-.48.65-.84,1.49l.04-.68c-.14-.61-.37-.35-.52-.66-.04.68-.13.57-.08,1.56-.46-3.88-.89,2.08-1.3-1.15l.08-.6-.35.63c.03,1.16.05.7.12,1.6-.04.68-.14,1.22-.23,1.22.16-.77,0-1.86-.07-2.5.01.35-.01.74,0,1.1-.18-2.06-.03,2.32-.28.94v-.61c-.08.31-.17,1.11-.27.94-.04-1.34.1-.62.11-1.72-.14.08-.28,2.53-.41,1.2.06-.37.15-.38.21-.75-.14-1.57-.16-1.17-.26-1.42v.04s-.23-.71-.23-.71l.06.43c-.18,3.48-.36.64-.6,2.92.23-2.16.04-1.25.06-2.76-.06-.42-.15-.89-.13-1.32-.11,1.22-.19-.96-.35.82,0-.49-.12-.05-.1-1.27-.15.38.03.85.02,1.46-.23,1.67-.53-2.02-.86.26-.28.94-.33,2.59-.59,3.4-.09-.78.07-1.78.07-1.78-.14-.72-.25-.59-.38-.03.03-.43,0-.79-.04-1.33-.11.13-.07,1.78-.21,1.06.02-.54.06-1.41.11-1.96-.13.45-.25,1.36-.38,1.8-.03-.85.08-1.29.13-1.84-.15.38-.38.77-.43,2.12l.09.48c-.05.06-.03-1.15.01-1.4.13-1.05.18.47.19.96l-.09.31c.1,2.86.37-.46.56-.29l-.08,2.08.19-1.73c.04.54.07,1.7-.02,2.01.13,1.03.12-.74.23.41.01.18,0,.28,0,.36l.13-.62c-.03.44.02,1.47-.06,1.17.24,1.2.38-1.56.47.02l-.02.13c.33-.7.03-1.53.28-3.32l.17,3.77.03-1.53c.03.05.1.17.09.78.13-1.05-.02-.66.05-1.65.16,1.39.45-.65.48,1.78.06-1.16-.16-.89.02-1.7.05,2.62.2-.45.35.75-.05,1.35-.19.63-.04,1.84.09-2.28.29.5.41.06,0-1.82.27-.76.48-1.36-.01.61.4,1,.59,1.66v.3c.03-1.84.23-1.49.38-1.87,0,1.1-.03,1.53-.11,2.02h.14c.03-.6.08-.91.17-1.12l-.03,1.37c.18-.08.37-1.62.61-.7.01-1.28-.19-3.57.06-4.42,0,.69.02,1.88-.05,2.16.02-.09.08-.57.12-.28l-.1,1.16c.11.51.06-.97.14-.86,0,.99.06.7.05,1.49-.02.1-.08-.41-.11-.02.1.18.21.76.25,1.51,0-.56,0-1.33.07-1.46.18-.07.06,1.19.17,1.7.04-.69.16.02.16-1.45.05,0,.06.7.08,1.1.1-.65.44-.19.34-1.76l-.02-.1.02-.06h0,0c.31-1.47.65.84.96.2v.49c.18-.56.41-.33.54-1.4.05,0,.13.9.11,1.49.14-.37.16-.93.36-.11-.14.86.05.76-.15.63.18.43.22,1.22.42-.13-.07,1.26.14,1.59.23,1.21l-.13-.9c.1-.18.18-.07.27.04l-.05,1.66c.38,2.02.68-3.44.96-.06.1-1.16-.2-.82-.12-2.18.17.22.35,2.61.41,2.62.24.92.22-2.43.47-1.8-.03-.59-.06-2.18.12-2.74.17.22.21,2.49.1,2.97-.04.05-.06-.14-.06-.34-.06.21-.13.47-.06,1.11l.02-.59c.09.61.32.54.27,1.52.13-.57.06-.97-.04-1.28.22.86.35.03.57.6-.04-.33-.07-1.02-.03-1.02.33.73.15-1.13.37-1.39.13.9-.05,2.16.18,1.4.14.61.03,1.57-.03,2.06.21-1.14.39.75.51.96l-.11.48c.07-.28.12-.28.17-.27l-.06-1.19c.06.21.12.21.12.71.07-.78-.05-1.97.08-3.04.09.6.26-.65.29.93-.27-.53.03,1.58-.2,1.84.04-.19.1-.18.16.03,0,.18,0,.33-.03.42.26,1.41.12-1.78.39-1.74-.03.89.06,1.68.11,1.49-.11-.02-.05-1.48.05-2.16.17.69.19-.51.28-.43l-.1-.32c.03-.89.12-.77.24-1.05.01.69-.11.48-.07.78.13-1.56.3,1.61.48.56.09.6,0,1.67.08,2.07.21-1.15.22,1.22.44.27-.06-1.19-.07-.9.08-2.06l-.36.84.23-1.73c-.11-.02-.23.75-.29.55.11-.97.1-.68.05-1.67.15,1.79.29-1.04.46.17v2.95c.25,1.32.45-1.52.79-.77l-.11-.51c.04-1.17.21-.16.31-.64-.01.99.06,1.35.1,1.96,0-.73.24.07.27-1.9l.15,1.3c.27.53.31-2.81.57-2.48-.08,1.07.04,1.77-.13,2.54.09.01.16.19.17-.49.05.62.24-1.33.32-.39.04-.43.05-1.47.15-1.39.01.2,0,.49,0,.49,0-.49.15-.66.07-1.76.27,3.08.74-.22.98,2.42.19-.33.42-.65.59-.72-.01.3,0,.49-.03.39.24.92.15-2.83.41-1.81.14,1.6-.14.86-.06,1.47.04,3.25.32-.44.51,1.45l-.04.19c.14,1.1.34-1.23.56-1,0,0-.01.29,0,.49.15-1.66.45-2.2.66-2.66-.07,1.27-.1.67-.06,1.96.1-.18-.03-2.07.17-2.44.06.7.2,1.3.22,2.68l-.18.07c.09,1.78.24-.06.33.25v.78c.27-.25.27-2.22.58-2.08l-.03-.59c.17-1.94.14,1.1.3-.35l.05,1.97c.11-.48.38-1.91.58-2.28-.11,1.46-.34,2.21-.48,3.08.11.01.37-.15.42-1.12-.04.19-.1.67-.14.37.13-1.55.31-2.31.52-2.28-.04,3.83.56.96.72,3.94.38-1.41.76.6,1.2.38-.16-2.98.13-.08.1-3.14.1-.2.14-.15.15.05l.31,1.83c.07.89-.1.67-.09,1.36.23.23.09,1.3.24,2.11-.03-1.09.08-1.57.21-1.15l-.18-1.41c.32-1.63.27,2.57.59.95l-.1.96c.16-.57.6.02.76-2.44.03.35.07,1.19,0,1.41.39.37.87-2.61,1.17-1.1l-.03.75c.07-.22.13-1.4.22-.65,0,.31-.03.75,0,.79.04-.26.19-1.31.29-.87l-.08.84c.38.98.59-2.05.91-2.56,0,2.2.3,2.92.45,3.27v.31c.44.27.75-1.82,1.16-2.69.26,2.39.86,1,1.28,2.34-.06-.4.01-1.71.08-1.94.1.45.27-1.53.25.49l-.03-.04c.07,1.98.27,1.45.42,1.51l.03-2.64c.4,3.84,1.06-1.41,1.28,2.03.1-.66.22-.65.32-1.31v1.42c.27.36.4.54.73.2l-.07,1.01c.19.09.24-4.08.41-4.16l.05,2.11c.33-.03.66,1.82.99-.09,0,.31-.01.92-.07,1.01.15.06.6,1.43.54-1.47,0,1.89.34.18.52-.65l-.03,1.39c.15-1.78.15-2.27.36-2.76.05.18.04,1.12-.02.76.17.73.13-1.32.33-.58l-.07.89c.17.11.16-.37.25-1.41.11-.56.32.35.35,1.61.02-.77.12-1.8.22-1.43.01.48-.02.77-.04.92.28.95.42-1.62.62-.25,0,.46.02.69.03.83-.23-.03-.41-.11-.39-.21,0,1.28.18,1.51.04,3.28.15-.97.4-3.07.57-2.47,0,.12.02.25.02.44l-.02.14c.04.13.08,0,.11-.21.06.21.09.37.15.39.02,1.06.21.57.3.62,0-1.41.11-1.18,0-2.34.01.1-.02.17-.08.23l-.04.15v-.12s-.22.09-.22.09c.07-.71.15-1.31.25-.53.05-.9.1-1.83.13-2.27.12,1.96.36,3.02.4,4.23.28-.79.65-.52.83-3.16.08-.34.09.76.12,1.17-.05.27-.1.22-.12.6.16-.68.47-.26.51-2.11.2.83-.11,1.7.16,1.4l-.04.56c.54,2.95.87-4.71,1.47-.92-.04-.23-.06-.34-.07-.65.68,1.67,1.4-1.57,2.07,1.08.19.53.21-.64.33-1.54l.04,1.51.2-1.74c.28-1.28.49,3.7.85,1.29l-.05-1.02c.13.19.41-.6.38.57.01-.19.04-1.06.09-.53v.79s.32-1.35.32-1.35c.24.57-.04,3.14.32,3.29.13-.3.38-2.3.33-2.83-.05-.04-.14-.49-.14-1.28l.12-.41c.02-2.33.12-4.71-.18-6.34l-.21,1.42-.07-1.13.17-.07c-.1-1.06-.16-.12-.23.52-.02-.6-.05-1.02-.09-1.24l-.2,2.22c-.02-.91.09-1.81-.05-2.31-.1,1.03.09,2.04-.07,2.72-.1-1.06-.07-1.92-.19-1.02-.02-.6,0-.98.05-1.25-.1.72-.27.3-.33,1.54-.1-1.31-.35.34-.34-1.86-.03.53-.18,1.73-.28,1.82.17-2.64-.36-.15-.31-2.98-.13,2.37-.46,1.05-.69,2.37.01-.19.04-.57.06-.45-.13-.2-.17-.91-.25-1.36-.02,1.96-.22,2.41-.32,3.62-.16-1.89.1-2.3.05-4.12,0,1.59-.27,1.58-.22,2.91-.12-1.17-.1-.57-.17-2.19-.02,2.45-.11.42-.21,1.92-.17-1.21-.04-2.29-.24-1.55-.09-.75.08-1.62.08-1.62ZM41.72,5.34v-.03l.09-.08-.09.11ZM41.34,5.36l.17.06c.01.48,0,.99-.04.96.02-.33-.07-.6-.13-1.01ZM42.15,15.1c-.06.2-.08-.08-.09-.36.03-.02.06-.07.11-.17v-.17c0,.27,0,.52-.02.71Z"/>
      <path class="cls-1" d="M42.26,13.26l.02-.1c-.01-.12-.02-.23-.04-.32,0,.15-.01.3-.02.44l.03-.02Z"/>
      <polygon class="cls-1" points="7.61 11.18 7.62 11.21 7.6 11.01 7.61 11.18"/>
      <polygon class="cls-1" points="36.06 2.67 36.06 3.03 36.1 2.72 36.06 2.67"/>
      <path class="cls-1" d="M5.51,6.35c0-.12-.01-.25-.03-.36,0,.09.01.22.03.36Z"/>
      <path class="cls-1" d="M4.6,6.04l-.13-.5c.06.28.1.42.13.5Z"/>
      <path class="cls-1" d="M3.9,5.34c0,.25-.01.43-.01.6h0s.01-.6.01-.6Z"/>
      <path class="cls-1" d="M15.01,3.69l.03-.06c.06-.27.02-.17-.03.06Z"/>
      <path class="cls-1" d="M11.71,6.97c.04-.26.07-.51.11-.66-.06-.11-.1-.14-.11.66Z"/>
      <polygon class="cls-1" points="18.71 2 18.71 2.02 18.73 2.02 18.71 2"/>
      <path class="cls-1" d="M11.97,6.34c-.06-.28-.11-.22-.15-.02.05.09.11.24.15.02Z"/>
      <path class="cls-1" d="M.87,4.7l-.03-.06c0,.09,0,.17,0,.23l.04-.17Z"/>
      <path class="cls-1" d="M.83,4.87l-.04.17s.03-.01.04-.17Z"/>
      <path class="cls-1" d="M.72,5.39l.08-.35s-.06-.05-.08.35Z"/>
      <path class="cls-1" d="M1.79,5.35v-.51c0,.11,0,.27,0,.51Z"/>
      <path class="cls-1" d="M2.08,5.21c-.07-.12-.17-1.09-.26-.77v.41c.04-.76.2,1.22.26.36Z"/>
      <path class="cls-1" d="M3.25,11.51l-.24-.41c.04.54.1,1.27-.01,1.4.3,1.62-.06-1.21.25-1Z"/>
      <path class="cls-1" d="M3.98,12.3c-.13.25,0,.79,0,1.1.08-.49.1-.62,0-1.1Z"/>
      <path class="cls-1" d="M9.26,12.3v1.28c.08-.18-.01-.5,0-1.28Z"/>
      <polygon class="cls-1" points="10.27 5.69 10.18 4.89 10.13 6.07 10.27 5.69"/>
      <polygon class="cls-1" points="10.87 14.8 10.82 14.98 10.99 14.52 10.87 14.8"/>
      <path class="cls-1" d="M19.74,14.35l-.03-1.57c-.07.28-.08,2.05.03,1.57Z"/>
      <path class="cls-1" d="M23.56,12.74c.04.79.15,1.29.22.52-.09-.11-.17-.72-.22-.52Z"/>
      <polygon class="cls-1" points="35.05 15.31 34.97 15.84 35.11 15.4 35.05 15.31"/>
      <path class="cls-1" d="M100.01,11.42c.03-.43.01-1.41-.06-1.21l-.05,1.66.11-.44Z"/>
      <path class="cls-1" d="M99.52,8.35c-.09.8-.19,2.21-.13,3.73.09-1.59.11-.93.2-2.82.07-.19.13.53.12,1.14.03-.42.11.36.15-.67-.1-1.28-.22-1.33-.34-.27-.03-.37,0-.8,0-1.1Z"/>
      <path class="cls-1" d="M92.36,5.77l.05.2c-.01-.11-.03-.17-.05-.2Z"/>
      <path class="cls-1" d="M87.92,4.86s.05-.2.05-.35c-.03.11-.06.21-.05.35Z"/>
      <path class="cls-1" d="M87.16,3.04l.04.11c-.02-.15-.03-.24-.04-.11Z"/>
      <path class="cls-1" d="M92.36,5.77l-.12-.52c0,.54.06.4.12.52Z"/>
      <path class="cls-1" d="M98.53,12.34c.02-.08.05-.23.06-.44l-.06.18c0,.09,0,.17,0,.26Z"/>
      <path class="cls-1" d="M94.31,4.43h.04c.01-.19.02-.42.03-.68l-.07.68Z"/>
      <path class="cls-1" d="M95.82,4.17c-.03-.06-.05,1.34-.06,1.96.02-.58.04-.85.07-.96,0-.27,0-.59-.02-1Z"/>
      <path class="cls-1" d="M98.2,6.65l.04-.19-.04.19Z"/>
      <path class="cls-1" d="M93.24,4.12c0-.21,0-.39-.01-.5,0,.18,0,.34.01.5Z"/>
      <path class="cls-1" d="M51.25,14.69c0-.1,0-.16,0-.25,0,.14-.01.24,0,.25Z"/>
      <path class="cls-1" d="M49.51,7.73l.02-.08c0-.27,0-.53,0-.79l-.03.86Z"/>
      <path class="cls-1" d="M85.78,1.24v.03c.04-.16.02-.13,0-.03Z"/>
      <path class="cls-1" d="M73.05,2.27c.14,1.26-.23,1.61-.02,3.01-.02-.55.2-2.19.02-3.01Z"/>
      <path class="cls-1" d="M98.49,12.16h-.06s.06,0,.06,0Z"/>
      <polygon class="cls-1" points="73.03 5.28 73.03 5.29 73.05 5.43 73.03 5.28"/>
      <path class="cls-1" d="M82.58,2.08c0,.25.02.44.03.62,0-.14,0-.32-.03-.62Z"/>
      <path class="cls-1" d="M84.96,4.08l-.06-.19c.02.13.04.17.06.19Z"/>
      <path class="cls-1" d="M81.35,4.07c-.03-.11-.04-.3-.09-.11v.17c.03-.19.05-.28.09-.06Z"/>
      <path class="cls-1" d="M80.06,4.07c0,.11.02.19.02.28l.04-.08-.06-.21Z"/>
      <path class="cls-1" d="M55.16,14.01c-.03-.4-.05-.83-.06-1.26.02,1-.17,1.36.06,1.26Z"/>
      <path class="cls-1" d="M98.53,11.55c0,.35-.02.53-.04.61l.04-.08c0-.21,0-.41,0-.53Z"/>
      <path class="cls-1" d="M81.29,15.15l-.2-.21c.06.14.13.21.2.21Z"/>
      <path class="cls-1" d="M64.39,13.81l-.05.17s.03,0,.05-.17Z"/>
      <path class="cls-1" d="M80.48,15.15c-.04-.5-.08-.78-.12-.97,0,.11-.02.2-.02.36l.14.61Z"/>
      <path class="cls-1" d="M55.1,12.73h0s0,0,0,0Z"/>
      <path class="cls-1" d="M53.76,16.07c.19.04.09-1.81.13-2.87.23-.53.11,1.36.19,2.3.15-.49.26-2.18.36-2.11,0,.3.03.41,0,.8.15-1.47.46-.07.63-1.92.01.16.02.32.02.46-.03-.93-.03-1.87-.03-2.54.09-.03.16-1.17.19.04-.05-.04-.06.45-.08.83l.09-.52c.08,1.73-.12.6-.12,1.88.18-.56.39-2,.52-1.51.03,1.7-.32.57-.14,2.08l-.21-.65c.16,2.68-.13-.19.02,2.68.28.49.31-.87.59-.37.06-.94-.02-1.4.04-2.34.39-1.7.31,4.27.6,2.01.08-1.13.1-3.28.31-2.14l-.07,1.92c.27.19.15-2.76.44-1.47-.05.75-.21.64-.17.86.18,1.52.13-1.09.27-1.09l.03,1.7c.29-.27.6-1.5.92-1.81-.02.51-.07,1.04,0,1.56.4-.85.86.21,1.24,1.22l.15-1.47s.06.66.03.95c.15.56,0-.93.08-1.51.09-.1.11.84.06,1.28.27-1.24.76-2.68,1.04-1.11l-.05.44c.22.6.25-3.01.45-1.64l-.04.26c.47.64,1-.71,1.36,1.51.07-2.11.47.94.5-2.01.27,1.46.19,1.99.57,2.97.1.14.15-1.84.28-2.15v1.54s.17-1.62.17-1.62l.09,1.84.12-.4c-.05-.09-.1-.69-.09-1.14.18-.7.45,1.07.45,1.86l.44-1.3c0,.62-.08.83-.14,1.23.23-1.57.04,1.62.26.18-.03-.35.02-.92.02-1.23.11.93.35.94.53.55l-.03,1.06c.32.27.68-.51,1.04-.49-.13-.49-.1-2.34,0-2.51l.04,1.63c.07-1.01-.11-.61.03-1.85.14.19.09,1.85.01,2.38l.16-.57c0,.49-.03.74-.04,1.36.07-1.01.28,1.63.38-.12v.48c.37.01.54-.55.83-.63,0-1.41.12-1.09.21-2.23.22.45.46,1.55.72,1.43.18-.7.05-1.19.14-2.03.01,1.28.27,1.16.14,2.08.31-.21.4-.26.8-1.3-.04-.52-.09-.75-.07-1.19.07-.21.16.54.15,1.15l-.02.13c.45-1.92,1.03,3.73,1.38,1.06l-.02.13.37-1.39c.17.22-.1.96.02,1.76.4-2.14.63.31.95-1.11.25,3.78.9-.27,1.24,2.15l-.02-.89c.09-.87.11.51.17.71,0-.69-.1-.8-.04-1.28.75-1.07,1.54,1.3,2.31,2.1.28.24.16-4.6.51-2.48l-.1,1.65c.57-1.98,1.16.07,1.71-1.61-.03.38-.03.88-.09.87.12,1.2.43.06.43-.92.09.11.02.89.07,1.38.12.71.29-1.53.36-.34.01.19-.03.39-.05.48.08-.58.36.15.28-1.24.21.66.4-.61.56.2.11-1.55.36.74.39-1.44-.01,2.26.36,1.82.5.76-.04.68.11.71.06,1.65.15-.03.29-.45.26-1.61.28,2.71.56-2.18.71,1.29.45-1.22.86-2.04,1.26-2.57-.01,2.25-.44.22-.43,2.59.38-.93.6-2.86.98-2.32.1.31-.06.98-.09,1.36.38-.93.73.2,1.07-1.02,0,.21-.04.44-.07.61.07-.07.15.33.15-.69l-.06.28c-.11-1.49.26-3.11.28-3.89-.11,2.94.33.74.15,4.45.04-.19.1-.68.09-1.36.07.2.09.6.02,1.38.24-.56.15-1.65.37-1.62,0,.5-.04.69-.07,1.27.11-.97.22-1.94.4-1.52-.01.3.01.69-.04.68.31-.15.53-2.58.88-1.64-.1,2.16.12.71.14,2.58l.19-.56-.07-.91c.16.03.31-1.33.44-.72l-.12.77.3-.35-.17-.71c.16-.96-.02-2.36.2-1.84-.04.19.16.02.25,1.12h0c.08-.59.16-1.21.28-.75.03.6-.03,2.06,0,2.46.08-1.56.38-.43.48-2.09-.03.39-.04,1.37-.02,1.57l.07-1.27c.08.41.09.6.07,1.38.23.23-.07-2.37.2-1.35-.02.1-.01.29-.05.48.27.53.52-.8.77-.18.07,1.88-.22.46-.13,2.04.36-.34.74-2.25,1.08-1.81l-.06-.21c.05-2.65.26,1.31.43.06-.04.2-.06,1.47-.04,1.18.24.43.48-.65.84-1.49l-.04.68c.14.61.37.35.52.66.04-.68.13-.57.08-1.56.46,3.88.89-2.08,1.3,1.15l-.08.6.35-.63c-.03-1.16-.05-.7-.12-1.6.04-.68.14-1.22.23-1.22-.16.77,0,1.86.07,2.5-.01-.35.01-.74,0-1.1.18,2.06.03-2.32.28-.94v.61c.08-.31.17-1.11.27-.94.04,1.34-.1.62-.11,1.72.14-.08.28-2.53.41-1.2-.06.37-.15.38-.21.75.14,1.57.16,1.17.26,1.42v-.04s.23.71.23.71l-.06-.43c.18-3.48.36-.64.6-2.92-.23,2.16-.04,1.25-.06,2.76.06.42.15.89.13,1.32.11-1.22.19.96.35-.82,0,.49.12.05.1,1.27.15-.38-.03-.85-.02-1.46.23-1.67.53,2.02.86-.27.28-.94.33-2.59.59-3.4.09.78-.07,1.78-.07,1.78.14.72.25.59.38.03-.03.43,0,.79.04,1.33.11-.13.07-1.78.21-1.06-.02.54-.06,1.41-.11,1.96.13-.45.25-1.36.38-1.8.03.85-.08,1.29-.13,1.84.15-.38.38-.77.43-2.12l-.09-.48c.05-.06.03,1.15-.01,1.4-.13,1.05-.18-.47-.19-.96l.09-.31c-.1-2.86-.37.46-.56.29l.08-2.08-.19,1.73c-.04-.54-.07-1.7.02-2.01-.13-1.03-.12.74-.23-.41-.01-.18,0-.28,0-.36l-.13.62c.03-.44-.02-1.47.06-1.17-.24-1.2-.38,1.56-.47-.02l.02-.13c-.33.7-.03,1.53-.28,3.32l-.17-3.77-.03,1.53c-.03-.05-.1-.17-.09-.78-.13,1.05.02.66-.05,1.65-.16-1.39-.45.65-.48-1.78-.06,1.16.16.89-.02,1.7-.05-2.62-.2.45-.35-.75.05-1.35.19-.63.04-1.84-.09,2.28-.29-.5-.41-.06,0,1.82-.27.76-.48,1.36.01-.61-.4-1-.59-1.66v-.3c-.03,1.84-.23,1.49-.38,1.87,0-1.1.03-1.53.11-2.02h-.14c-.03.6-.08.91-.17,1.12l.03-1.37c-.18.08-.37,1.62-.61.7-.01,1.28.19,3.57-.06,4.42,0-.69-.02-1.88.05-2.16-.02.09-.08.57-.12.28l.1-1.16c-.11-.51-.06.97-.14.86,0-.99-.06-.7-.05-1.49.02-.1.08.41.11.02-.1-.18-.21-.76-.25-1.51,0,.56,0,1.33-.07,1.46-.18.07-.06-1.19-.17-1.7-.04.69-.16-.02-.16,1.45-.05,0-.06-.7-.08-1.09-.1.65-.44.19-.34,1.76l.02.1-.02.06h0,0c-.31,1.47-.65-.84-.96-.2v-.49c-.18.56-.41.33-.54,1.4-.05,0-.13-.9-.11-1.49-.14.37-.16.93-.36.11.14-.86-.05-.76.15-.63-.18-.43-.22-1.22-.42.13.07-1.26-.14-1.59-.23-1.21l.13.9c-.1.18-.18.07-.27-.04l.05-1.66c-.38-2.02-.68,3.44-.96.06-.1,1.16.2.82.12,2.18-.17-.22-.35-2.61-.41-2.62-.24-.92-.22,2.43-.47,1.8.03.59.06,2.18-.12,2.74-.17-.22-.21-2.49-.1-2.97.04-.05.06.14.06.34.06-.22.13-.47.06-1.11l-.02.59c-.09-.61-.32-.54-.27-1.52-.13.57-.06.97.04,1.28-.22-.86-.35-.03-.57-.6.04.33.07,1.02.03,1.02-.33-.73-.15,1.13-.37,1.39-.13-.9.05-2.16-.18-1.4-.14-.61-.03-1.57.03-2.06-.21,1.14-.39-.75-.51-.96l.11-.48c-.07.28-.12.28-.17.27l.06,1.19c-.06-.21-.12-.21-.12-.71-.07.78.05,1.97-.08,3.04-.09-.6-.26.65-.29-.93.27.53-.03-1.58.2-1.84-.04.19-.1.18-.16-.03,0-.18,0-.33.03-.42-.26-1.41-.12,1.78-.39,1.74.03-.89-.06-1.68-.11-1.49.11.02.05,1.48-.05,2.16-.17-.69-.19.51-.28.43l.1.32c-.03.89-.12.77-.24,1.05-.01-.69.11-.48.07-.78-.13,1.56-.3-1.61-.48-.56-.09-.6,0-1.67-.08-2.07-.21,1.15-.22-1.22-.44-.26.06,1.19.07.9-.08,2.06l.36-.84-.23,1.73c.11.02.23-.75.29-.55-.11.97-.1.68-.05,1.67-.15-1.79-.29,1.04-.46-.17v-2.95c-.25-1.32-.45,1.52-.79.77l.11.51c-.04,1.17-.21.16-.31.64.01-.99-.06-1.35-.1-1.96,0,.73-.24-.07-.27,1.9l-.15-1.3c-.27-.53-.31,2.81-.57,2.48.08-1.07-.04-1.77.13-2.54-.09,0-.16-.19-.17.49-.05-.62-.24,1.33-.32.39-.04.43-.05,1.47-.15,1.39-.01-.2,0-.49,0-.49,0,.49-.15.66-.07,1.76-.27-3.08-.74.22-.98-2.42-.19.33-.42.65-.59.72.01-.3,0-.49.03-.39-.24-.92-.15,2.83-.41,1.81-.14-1.6.14-.86.06-1.47-.04-3.25-.32.44-.51-1.45l.04-.19c-.14-1.1-.34,1.23-.56,1,0,0,.01-.29,0-.49-.15,1.66-.45,2.2-.66,2.66.07-1.27.1-.67.06-1.96-.1.18.03,2.07-.17,2.44-.06-.7-.2-1.3-.22-2.68l.18-.07c-.09-1.78-.24.06-.33-.25v-.78c-.27.25-.27,2.22-.58,2.08l.03.59c-.17,1.94-.14-1.1-.3.35l-.05-1.97c-.11.48-.38,1.91-.58,2.28.11-1.46.34-2.21.48-3.08-.11-.01-.37.15-.42,1.12.04-.19.1-.67.14-.37-.13,1.55-.31,2.31-.52,2.28.04-3.83-.56-.96-.72-3.94-.38,1.41-.76-.6-1.2-.38.16,2.98-.13.08-.1,3.14-.1.2-.14.15-.15-.05l-.31-1.83c-.07-.89.1-.67.09-1.36-.23-.23-.09-1.3-.24-2.11.03,1.09-.08,1.57-.21,1.15l.18,1.41c-.32,1.63-.27-2.57-.59-.95l.1-.96c-.16.57-.6-.02-.76,2.44-.03-.35-.07-1.19,0-1.41-.39-.37-.87,2.61-1.17,1.1l.03-.75c-.07.22-.13,1.41-.22.65,0-.31.03-.75,0-.79-.04.26-.19,1.31-.29.87l.08-.84c-.38-.98-.59,2.05-.91,2.56,0-2.2-.3-2.92-.45-3.27v-.31c-.44-.27-.75,1.82-1.16,2.69-.26-2.39-.86-1-1.28-2.34.06.4-.01,1.72-.08,1.94-.1-.45-.27,1.53-.25-.49l.03.04c-.07-1.98-.27-1.45-.42-1.51l-.03,2.64c-.4-3.84-1.06,1.41-1.28-2.03-.1.66-.22.65-.32,1.31v-1.42c-.27-.36-.4-.54-.73-.2l.07-1.01c-.19-.09-.24,4.08-.41,4.16l-.05-2.11c-.33.03-.66-1.82-.99.09,0-.31.01-.92.07-1.01-.15-.06-.6-1.43-.54,1.47,0-1.89-.34-.18-.52.65l.03-1.39c-.15,1.78-.15,2.27-.36,2.76-.05-.18-.04-1.12.02-.76-.17-.73-.13,1.32-.33.58l.07-.89c-.17-.11-.16.37-.25,1.41-.11.56-.32-.35-.35-1.61-.02.77-.12,1.8-.22,1.43-.01-.48.02-.77.04-.92-.28-.95-.42,1.62-.62.25,0-.46-.02-.69-.03-.83.23.03.41.11.39.21,0-1.28-.18-1.51-.04-3.28-.15.97-.4,3.07-.57,2.47,0-.12-.02-.25-.02-.44l.02-.14c-.04-.13-.08,0-.11.21-.06-.21-.09-.37-.15-.39-.02-1.06-.21-.57-.3-.62,0,1.41-.11,1.18,0,2.34-.01-.1.02-.17.08-.23l.04-.15v.12s.22-.09.22-.09c-.07.71-.15,1.31-.25.53-.05.9-.1,1.83-.13,2.27-.12-1.96-.36-3.02-.4-4.23-.28.79-.65.52-.83,3.16-.08.34-.09-.76-.12-1.17.05-.26.1-.22.12-.6-.16.68-.47.26-.51,2.11-.2-.83.11-1.7-.16-1.4l.04-.56c-.54-2.95-.87,4.71-1.47.92.04.23.06.34.07.65-.68-1.67-1.4,1.57-2.07-1.08-.19-.53-.21.64-.33,1.54l-.04-1.51-.2,1.74c-.28,1.28-.49-3.7-.85-1.29l.05,1.02c-.13-.19-.41.6-.38-.57-.01.19-.04,1.06-.09.53v-.79s-.32,1.35-.32,1.35c-.24-.57.04-3.14-.32-3.29-.13.3-.38,2.3-.33,2.83.05.04.14.49.14,1.28l-.12.41c-.02,2.33-.12,4.71.18,6.34l.21-1.42.07,1.13-.17.07c.1,1.06.16.12.23-.52.02.6.05,1.02.09,1.24l.2-2.22c.02.91-.09,1.81.05,2.31.1-1.03-.09-2.04.07-2.72.1,1.06.07,1.92.19,1.02.02.6,0,.98-.05,1.24.1-.72.27-.3.33-1.54.1,1.31.35-.34.34,1.86.03-.53.18-1.73.28-1.82-.17,2.64.36.15.31,2.98.13-2.37.46-1.05.69-2.37-.01.19-.04.57-.06.45.13.2.17.91.25,1.36.02-1.96.22-2.41.32-3.62.16,1.89-.1,2.3-.05,4.12,0-1.59.27-1.58.22-2.91.12,1.17.1.57.17,2.19.02-2.45.11-.42.21-1.92.17,1.21.04,2.3.24,1.55.09.75-.08,1.62-.08,1.62ZM58.3,11.83v.03l-.09.08.09-.11ZM58.69,11.81l-.17-.06c-.01-.48,0-.98.04-.96-.02.32.07.6.13,1.01ZM57.88,2.07c.06-.2.08.08.09.37-.03.02-.06.07-.11.17v.17c0-.27,0-.52.02-.71Z"/>
      <path class="cls-1" d="M57.77,3.92l-.02.1c.01.12.02.23.04.32,0-.15.01-.3.02-.44l-.03.02Z"/>
      <polygon class="cls-1" points="92.41 6 92.4 5.97 92.42 6.17 92.41 6"/>
      <polygon class="cls-1" points="63.96 14.5 63.96 14.15 63.93 14.46 63.96 14.5"/>
      <path class="cls-1" d="M94.52,10.82c0,.12.01.25.03.36,0-.09-.01-.22-.03-.36Z"/>
      <path class="cls-1" d="M95.43,11.14l.13.5c-.06-.28-.1-.42-.13-.5Z"/>
      <path class="cls-1" d="M96.13,11.83c0-.25.01-.43.01-.6h0s-.01.6-.01.6Z"/>
      <path class="cls-1" d="M85.01,13.49l-.03.06c-.06.27-.02.16.03-.06Z"/>
      <path class="cls-1" d="M88.32,10.2c-.04.26-.07.51-.11.66.06.11.1.14.11-.66Z"/>
      <polygon class="cls-1" points="81.32 15.18 81.32 15.15 81.29 15.15 81.32 15.18"/>
      <path class="cls-1" d="M88.06,10.84c.06.28.11.22.15.02-.05-.09-.11-.24-.15-.02Z"/>
      <path class="cls-1" d="M99.16,12.47l.03.06c0-.09,0-.17,0-.23l-.04.17Z"/>
      <path class="cls-1" d="M99.19,12.3l.04-.17s-.03.01-.04.17Z"/>
      <path class="cls-1" d="M99.31,11.78l-.08.35s.06.05.08-.35Z"/>
      <path class="cls-1" d="M98.23,11.82v.51c0-.1,0-.27,0-.51Z"/>
      <path class="cls-1" d="M97.95,11.97c.07.12.17,1.09.26.77v-.41c-.04.76-.2-1.22-.26-.36Z"/>
      <path class="cls-1" d="M96.77,5.67l.24.41c-.04-.54-.1-1.27.01-1.4-.3-1.62.06,1.21-.25,1Z"/>
      <path class="cls-1" d="M96.04,4.88c.13-.25,0-.79,0-1.1-.08.49-.1.62,0,1.1Z"/>
      <path class="cls-1" d="M90.76,4.88v-1.28c-.08.18.01.5,0,1.28Z"/>
      <polygon class="cls-1" points="89.75 11.49 89.85 12.28 89.89 11.11 89.75 11.49"/>
      <polygon class="cls-1" points="89.16 2.38 89.2 2.19 89.04 2.66 89.16 2.38"/>
      <path class="cls-1" d="M80.29,2.83l.03,1.57c.07-.28.08-2.05-.03-1.57Z"/>
      <path class="cls-1" d="M76.46,4.44c-.04-.79-.15-1.29-.22-.52.09.11.17.72.22.52Z"/>
      <polygon class="cls-1" points="64.98 1.87 65.05 1.34 64.91 1.78 64.98 1.87"/>
    </g>
  </g>
</svg>