<?xml version="1.0" encoding="UTF-8"?>
<svg id="Layer_1" xmlns="http://www.w3.org/2000/svg" viewBox="0 0 64 64">
  <path d="M48.42,3c6.93,0,12.58,5.64,12.58,12.58v32.85c0,6.93-5.64,12.58-12.58,12.58H15.58c-6.93,0-12.58-5.64-12.58-12.58V15.58c0-6.93,5.64-12.58,12.58-12.58h32.85M48.42,0H15.58C7.01,0,0,7.01,0,15.58v32.85c0,8.57,7.01,15.58,15.58,15.58h32.85c8.57,0,15.58-7.01,15.58-15.58V15.58c0-8.57-7.01-15.58-15.58-15.58h0Z"/>
  <path d="M32,15c-9.37,0-17,7.63-17,17s7.63,17,17,17,17-7.63,17-17-7.63-17-17-17ZM32,45c-7.18,0-13-5.82-13-13s5.82-13,13-13,13,5.82,13,13-5.82,13-13,13Z"/>
  <circle cx="52.5" cy="10.5" r="3.5"/>
</svg>