<?xml version="1.0" encoding="UTF-8"?>
<svg id="Layer_1" xmlns="http://www.w3.org/2000/svg" viewBox="0 0 88 78">
  <defs>
    <style>
      .cls-1, .cls-2 {
        fill: #173e45;
      }

      .cls-2 {
        font-family: WyvernRg-Bold, Wyvern;
        font-size: 12px;
        font-weight: 700;
      }

      .cls-3 {
        fill: none;
      }

      .cls-4 {
        letter-spacing: -.05em;
      }

      .cls-5 {
        fill: #1a1a1a;
      }

      .cls-6 {
        fill: #b3b3b3;
      }
    </style>
  </defs>
  <text class="cls-2" transform="translate(9.64 72.98)"><tspan x="0" y="0">BILLEDE </tspan><tspan class="cls-4" x="39.07" y="0">P</tspan><tspan x="44.18" y="0">Å VEJ</tspan></text>
  <path class="cls-1" d="M76,19.21v35.88c0,1.6-1.3,2.91-2.88,2.91H14.88c-1.58,0-2.88-1.31-2.88-2.91V19.21c0-1.6,1.3-2.91,2.88-2.91h13.82c.87,0,1.63-.6,1.87-1.44l.7-2.63c.51-1.91,2.22-3.23,4.17-3.23h17.35c1.84,0,3.48,1.18,4.09,2.94l1.05,3.04c.26.8,1,1.32,1.82,1.32h13.37c1.58,0,2.88,1.31,2.88,2.91Z"/>
  <path class="cls-5" d="M74.6,13h-12.56c-.76,0-1.43-.48-1.68-1.19l-.1-.31c-1.15-3.29-4.26-5.5-7.74-5.5h-16.81c-3.7,0-6.95,2.49-7.9,6.05l-.26.95h-14.15c-2.43,0-4.4,1.97-4.4,4.4v39.2c0,2.43,1.97,4.4,4.4,4.4h61.2c2.43,0,4.4-1.97,4.4-4.4V17.4c0-2.43-1.97-4.4-4.4-4.4ZM75,54.21c0,1.53-1.26,2.79-2.79,2.79H15.79c-1.53,0-2.79-1.26-2.79-2.79V19.79c0-1.53,1.26-2.79,2.79-2.79h13.39c.84,0,1.58-.57,1.81-1.38l.68-2.52c.49-1.83,2.15-3.1,4.04-3.1h16.81c1.78,0,3.37,1.13,3.96,2.82l1.01,2.92c.26.76.97,1.26,1.77,1.26h12.95c1.53,0,2.79,1.26,2.79,2.79v34.42Z"/>
  <path class="cls-5" d="M44,23.25c-7.59,0-13.75,6.16-13.75,13.75s6.16,13.75,13.75,13.75,13.75-6.16,13.75-13.75-6.16-13.75-13.75-13.75ZM44,47c-5.52,0-10-4.48-10-10s4.48-10,10-10,10,4.48,10,10-4.48,10-10,10Z"/>
  <g>
    <g>
      <path class="cls-5" d="M9.18,63.79c-.41,0-.78-.21-.99-.55l-3.36-5.34c-.34-.55-.17-1.27.37-1.62l3.68-2.31v2.62c0,2.5,2.03,4.53,4.52,4.53h.37l-3.96,2.49c-.19.12-.41.18-.63.18Z"/>
      <path class="cls-6" d="M8.75,54.2v2.4c0,2.54,2.05,4.61,4.58,4.65l-3.59,2.26c-.17.11-.36.16-.56.16-.36,0-.69-.18-.89-.49l-3.36-5.34c-.3-.49-.16-1.14.33-1.45l3.49-2.19M9,53.75l-3.87,2.43c-.6.38-.79,1.18-.41,1.79l3.36,5.34c.25.39.67.61,1.1.61.24,0,.48-.06.69-.2l4.33-2.72h-.8c-2.43,0-4.4-1.97-4.4-4.4v-2.85h0Z"/>
    </g>
    <g>
      <path class="cls-5" d="M15.79,56.88c-1.47,0-2.67-1.2-2.67-2.67v-2.91l17.41-10.94c.7,2.84,2.33,5.43,4.61,7.32l-14.62,9.2h-4.73Z"/>
      <path class="cls-6" d="M30.46,40.56c.71,2.75,2.29,5.25,4.47,7.11l-14.45,9.09h-4.7c-1.4,0-2.54-1.14-2.54-2.54v-2.84l17.21-10.81M30.62,40.16l-17.62,11.07v2.98c0,1.53,1.26,2.79,2.79,2.79h4.77l14.8-9.31c-2.34-1.89-4.04-4.52-4.74-7.53h0Z"/>
    </g>
    <g>
      <path class="cls-5" d="M38.79,45.38c-2.57-1.59-4.28-4.32-4.61-7.32l15.03-9.45c2.57,1.59,4.28,4.32,4.61,7.32l-15.03,9.45Z"/>
      <path class="cls-6" d="M49.21,28.76c2.47,1.56,4.13,4.2,4.47,7.11l-14.9,9.36c-2.47-1.56-4.13-4.2-4.47-7.11l14.9-9.36M49.21,28.47l-15.16,9.53c.32,3.19,2.13,5.94,4.74,7.53l15.16-9.53c-.32-3.19-2.13-5.94-4.74-7.53h0Z"/>
    </g>
    <g>
      <path class="cls-5" d="M57.46,33.64c-.7-2.84-2.33-5.43-4.61-7.32l14.65-9.22,4.7.02c1.47,0,2.67,1.2,2.67,2.67v2.91l-17.41,10.94Z"/>
      <path class="cls-6" d="M72.21,17.25c1.4,0,2.54,1.14,2.54,2.54v2.84l-17.21,10.81c-.71-2.75-2.29-5.25-4.47-7.11l14.45-9.09h4.7M72.21,17h-4.77l-14.8,9.31c2.34,1.89,4.04,4.52,4.74,7.53l17.62-11.07v-2.98c0-1.53-1.26-2.79-2.79-2.79h0Z"/>
    </g>
    <g>
      <path class="cls-5" d="M79.12,17.4c0-2.5-2.03-4.52-4.53-4.52h-.37l3.96-2.49c.19-.12.41-.18.62-.18.41,0,.78.21.99.55l3.36,5.34c.34.55.17,1.27-.37,1.62l-3.68,2.31v-2.62Z"/>
      <path class="cls-6" d="M78.82,10.33h0c.36,0,.69.18.89.49l3.36,5.34c.3.49.16,1.14-.33,1.45l-3.49,2.19v-2.4c0-2.54-2.05-4.61-4.58-4.65l3.6-2.26c.17-.11.36-.16.56-.16M78.82,10.08c-.24,0-.48.06-.69.2l-4.33,2.72h.8c2.43,0,4.4,1.97,4.4,4.4v2.85l3.87-2.43c.6-.38.79-1.18.41-1.79l-3.36-5.34c-.25-.39-.67-.61-1.1-.61h0Z"/>
    </g>
  </g>
  <rect class="cls-3" width="88" height="78"/>
</svg>