<?xml version="1.0" encoding="UTF-8"?>
<svg id="Layer_1" xmlns="http://www.w3.org/2000/svg" viewBox="0 0 128 39.99">
  <defs>
    <style>
      .cls-1 {
        fill: #f28608;
      }

      .cls-2 {
        fill: #fecc45;
      }

      .cls-3 {
        fill: #fbeb22;
      }
    </style>
  </defs>
  <g>
    <path class="cls-3" d="M64,27.25v9c-6.76,2.66-13.75,3.74-18.51,3.74-1.09,0-2.07-.05-2.89-.14-5.84-.65-9.99-2.94-13.65-4.97-3.58-1.98-6.68-3.69-11.2-4.02-5.96-.41-13.79,3.11-17.75,5.39v-9c4.64-2.2,11.75-4.85,18.32-4.37,6.28.46,10.65,2.87,14.5,5,3.44,1.91,6.41,3.55,10.65,4.02,3.37.37,12.57-.67,20.53-4.65Z"/>
    <path class="cls-2" d="M64,16.12v9c-6.76,2.66-13.75,3.74-18.51,3.74-1.09,0-2.07-.05-2.89-.14-5.84-.65-9.99-2.94-13.65-4.97-3.58-1.98-6.68-3.69-11.2-4.02C11.79,19.32,3.96,22.84,0,25.12v-9c4.64-2.2,11.75-4.85,18.32-4.37,6.28.46,10.65,2.87,14.5,5,3.44,1.91,6.41,3.55,10.65,4.02,3.37.37,12.57-.67,20.53-4.65Z"/>
    <path class="cls-1" d="M64,4.43v9c-6.76,2.66-13.75,3.74-18.51,3.74-1.09,0-2.07-.05-2.89-.14-5.84-.65-9.99-2.94-13.65-4.97-3.58-1.98-6.68-3.69-11.2-4.02C11.79,7.63,3.96,11.15,0,13.43V4.43C4.64,2.23,11.75-.42,18.32.06c6.28.46,10.65,2.87,14.5,5,3.44,1.91,6.41,3.55,10.65,4.02,3.37.37,12.57-.67,20.53-4.65Z"/>
  </g>
  <g>
    <path class="cls-3" d="M128,27.25v9c-6.76,2.66-13.75,3.74-18.51,3.74-1.09,0-2.07-.05-2.89-.14-5.84-.65-9.99-2.94-13.65-4.97-3.58-1.98-6.68-3.69-11.2-4.02-5.96-.41-13.79,3.11-17.75,5.39v-9c4.64-2.2,11.75-4.85,18.32-4.37,6.28.46,10.65,2.87,14.5,5,3.44,1.91,6.41,3.55,10.65,4.02,3.37.37,12.57-.67,20.53-4.65Z"/>
    <path class="cls-2" d="M128,16.12v9c-6.76,2.66-13.75,3.74-18.51,3.74-1.09,0-2.07-.05-2.89-.14-5.84-.65-9.99-2.94-13.65-4.97-3.58-1.98-6.68-3.69-11.2-4.02-5.96-.41-13.79,3.11-17.75,5.39v-9c4.64-2.2,11.75-4.85,18.32-4.37,6.28.46,10.65,2.87,14.5,5,3.44,1.91,6.41,3.55,10.65,4.02,3.37.37,12.57-.67,20.53-4.65Z"/>
    <path class="cls-1" d="M128,4.43v9c-6.76,2.66-13.75,3.74-18.51,3.74-1.09,0-2.07-.05-2.89-.14-5.84-.65-9.99-2.94-13.65-4.97-3.58-1.98-6.68-3.69-11.2-4.02-5.96-.41-13.79,3.11-17.75,5.39V4.43C68.64,2.23,75.75-.42,82.32.06c6.28.46,10.65,2.87,14.5,5,3.44,1.91,6.41,3.55,10.65,4.02,3.37.37,12.57-.67,20.53-4.65Z"/>
  </g>
</svg>